{
  "title": "The Duff.2015.WEB.RIP.CAM.AUDIO-FANTA",
  "uid": 11751306,
  "size": 1446277889,
  "categoryP": "video",
  "categoryS": "movies",
  "magnet": "?xt=urn:btih:255cfdcfc36fa30ddc6374c9279f2e04f33889df&amp;dn=The+Duff.2015.WEB.RIP.CAM.AUDIO-FANTA&amp;tr=udp%3A%2F%2Ftracker.openbittorrent.com%3A80&amp;tr=udp%3A%2F%2Fopen.demonii.com%3A1337&amp;tr=udp%3A%2F%2Ftracker.coppersurfer.tk%3A6969&amp;tr=udp%3A%2F%2Fexodus.desync.com%3A6969",
  "seeders": 383,
  "leechers": 60,
  "uploader": "xxxlavalxxx",
  "files": 8,
  "time": 1426227970,
  "description": " &lt;a href=&quot;http://www.imdb.com/title/tt1666801/&quot; rel=&quot;nofollow&quot; target=&quot;_NEW&quot;&gt;http://www.imdb.com/title/tt1666801/&lt;/a&gt;\nA high school senior instigates a social pecking order revolution after finding out that she has been labeled the DUFF (Designated Ugly Fat Friend) to her prettier more popular friends.\nDirector: Ari Sandel\nWriters: Josh A. Cagan (screenplay), Kody Keplinger (novel)\nStars: Mae Whitman, Bella Thorne, Robbie Amell \nGenres: Comedy\nCountry: USA\nLanguage: English\n\nFormat                                   : AVI\nFormat/Info                              : Audio Video Interleave\nFormat profile                           : OpenDML\nFormat settings                          : rec\nFile size                                : 1.33 GiB\nDuration                                 : 1h 37mn\nOverall bit rate                         : 1 957 Kbps\nWriting application                      : AVI-Mux GUI 1.17.8.3, Feb 16 201019:42:50\nVideo\nID                                       : 0\nFormat                                   : MPEG-4 Visual\nFormat profile                           : Advanced Simple@L5\nFormat settings, BVOP                    : 2\nFormat settings, QPel                    : No\nFormat settings, GMC                     : No warppoints\nFormat settings, Matrix                  : Default (MPEG)\nCodec ID                                 : XVID\nCodec ID/Hint                            : XviD\nDuration                                 : 1h 37mn\nBit rate                                 : 1 760 Kbps\nWidth                                    : 720 pixels\nHeight                                   : 320 pixels\nDisplay aspect ratio                     : 2.25:1\nFrame rate                               : 25.000 fps\nColor space                              : YUV\nChroma subsampling                       : 4:2:0\nBit depth                                : 8 bits\nScan type                                : Progressive\nCompression mode                         : Lossy\nBits/(Pixel*Frame)                       : 0.306\nStream size                              : 1.19 GiB (90%)\nWriting library                          : XviD 1.2.1 (UTC 2008-12-04)\nAudio\nID                                       : 1\nFormat                                   : AC-3\nFormat/Info                              : Audio Coding 3\nMode extension                           : CM (complete main)\nFormat settings, Endianness              : Big\nCodec ID                                 : 2000\nDuration                                 : 1h 37mn\nBit rate mode                            : Constant\nBit rate                                 : 192 Kbps\nChannel(s)                               : 2 channels\nChannel positions                        : Front: L R\nSampling rate                            : 48.0 KHz\nBit depth                                : 16 bits\nCompression mode                         : Lossy\nStream size                              : 133 MiB (10%)\nAlignment                                : Aligned on interleaves\nInterleave, duration                     : 64 ms (1.60 video frames)\nInterleave, preload duration             : 192 ms\n &lt;a href=&quot;\nhttp://i.imgur.com/vfXIfan.png&quot; rel=&quot;nofollow&quot; target=&quot;_NEW&quot;&gt;\nhttp://i.imgur.com/vfXIfan.png&lt;/a&gt; &lt;a href=&quot;\nhttp://i.imgur.com/CpiurVN.png&quot; rel=&quot;nofollow&quot; target=&quot;_NEW&quot;&gt;\nhttp://i.imgur.com/CpiurVN.png&lt;/a&gt; &lt;a href=&quot;\nhttp://i.imgur.com/mcf2kEQ.png&quot; rel=&quot;nofollow&quot; target=&quot;_NEW&quot;&gt;\nhttp://i.imgur.com/mcf2kEQ.png&lt;/a&gt; &lt;a href=&quot;\nhttp://i.imgur.com/kBC0xfa.png&quot; rel=&quot;nofollow&quot; target=&quot;_NEW&quot;&gt;\nhttp://i.imgur.com/kBC0xfa.png&lt;/a&gt;",
  "parsed": {
    "xt": "urn:btih:255cfdcfc36fa30ddc6374c9279f2e04f33889df",
    "dn": "The Duff.2015.WEB.RIP.CAM.AUDIO-FANTA",
    "tr": [
      "udp://exodus.desync.com:6969",
      "udp://open.demonii.com:1337",
      "udp://tracker.coppersurfer.tk:6969",
      "udp://tracker.openbittorrent.com:80"
    ],
    "infoHash": "255cfdcfc36fa30ddc6374c9279f2e04f33889df",
    "infoHashBuffer": {
      "type": "Buffer",
      "data": [
        37,
        92,
        253,
        207,
        195,
        111,
        163,
        13,
        220,
        99,
        116,
        201,
        39,
        159,
        46,
        4,
        243,
        56,
        137,
        223
      ]
    },
    "name": "The Duff.2015.WEB.RIP.CAM.AUDIO-FANTA",
    "announce": [
      "udp://exodus.desync.com:6969",
      "udp://open.demonii.com:1337",
      "udp://tracker.coppersurfer.tk:6969",
      "udp://tracker.openbittorrent.com:80"
    ],
    "urlList": []
  },
  "previous": 443,
  "peers": 13,
  "last_updated": "2016-12-24T20:01:39.646Z"
}